#!OML:ASF X:\für Bonn\!DataBase\2005_08_11_Bastian_Final\c3d\Bastian.ASF
:FULLY-SPECIFIED
:DEGREES
139
root 22.3359 16.2948 -4.91019 546.333 -110.475 -155.233
lowerback 74.8064 -4.93638 12.0331
upperback 16.3051 0.107689 -0.103521
thorax -1.69141 -0.0250145 -4.76985
lowerneck -7.29211 -5.38872 -0.242788
upperneck -21.2448 -7.48098 3.73507
head -5.09053 -4.34087 1.4082
rclavicle 2.54444e-014 -2.8625e-014
rhumerus 58.8738 -16.7893 -49.5274
rradius 18.5043
rwrist -5.79386
rhand -38.7903 -5.04053
rfingers 7.12502
rthumb -11.8015 -34.688
lclavicle 2.54444e-014 -2.8625e-014
lhumerus -9.37611 -29.1134 84.3998
lradius 54.9348
lwrist 34.2696
lhand -14.0969 -16.1514
lfingers 7.12502
lthumb 12.0357 13.4826
rfemur -71.3008 -14.0106 21.0892
rtibia 63.8234
rfoot -15.07 -2.3789
rtoes 4.30034
lfemur -65.047 -4.32882 -30.7798
ltibia 48.2141
lfoot -4.41621 -5.27121
ltoes -18.8937
140
root 22.3279 16.3036 -4.91081 546.621 -110.604 -155.603
lowerback 74.7732 -4.73249 11.9255
upperback 16.3565 0.241864 0.00361456
thorax -1.6373 0.0155676 -4.66057
lowerneck -7.44638 -5.39662 -0.149307
upperneck -21.0916 -7.51223 3.63563
head -5.02555 -4.35445 1.35311
rclavicle 6.99722e-014 4.77083e-015
rhumerus 58.6058 -16.776 -49.3389
rradius 18.637
rwrist -6.02732
rhand -38.7246 -5.31143
rfingers 7.12502
rthumb -11.7381 -34.9625
lclavicle 6.99722e-014 4.77083e-015
lhumerus -9.25676 -29.2144 84.5064
lradius 54.8558
lwrist 34.3023
lhand -14.0956 -16.1409
lfingers 7.12502
lthumb 12.037 13.493
rfemur -71.0971 -14.0402 21.1634
rtibia 63.7142
rfoot -15.086 -2.47081
rtoes 4.30416
lfemur -64.8872 -4.36462 -30.6586
ltibia 48.1099
lfoot -4.40428 -5.34088
ltoes -18.827
141
root 22.3209 16.3124 -4.91155 546.941 -110.726 -156.009
lowerback 74.7273 -4.50971 11.8265
upperback 16.4037 0.401223 0.122753
thorax -1.58754 0.0651675 -4.55073
lowerneck -7.54284 -5.39828 -0.0250891
upperneck -20.9915 -7.54036 3.50516
head -4.98915 -4.36796 1.2871
rclavicle 4.45278e-014 9.54166e-015
rhumerus 58.37 -16.8253 -49.3275
rradius 18.7167
rwrist -6.06087
rhand -38.7288 -5.53961
rfingers 7.12502
rthumb -11.7421 -35.1905
lclavicle 4.45278e-014 9.54166e-015
lhumerus -9.15141 -29.3501 84.6351
lradius 54.7391
lwrist 34.3523
lhand -14.0498 -16.206
lfingers 7.12502
lthumb 12.0811 13.4252
rfemur -70.8985 -14.0757 21.2685
rtibia 63.5995
rfoot -15.1144 -2.52194
rtoes 4.38265
lfemur -64.7379 -4.41268 -30.5058
ltibia 48.0059
lfoot -4.36922 -5.38085
ltoes -18.8188
142
root 22.3141 16.3218 -4.91113 547.091 -110.858 -156.275
lowerback 74.7131 -4.3214 11.7173
upperback 16.4499 0.520911 0.216475
thorax -1.53961 0.1012 -4.44983
lowerneck -7.65127 -5.40556 0.088847
upperneck -20.8685 -7.57148 3.40127
head -4.94216 -4.38319 1.22995
rclavicle 6.36111e-014 -3.02153e-014
rhumerus 58.0334 -16.7402 -49.0552
rradius 18.876
rwrist -6.32177
rhand -38.7925 -5.91632
rfingers 7.12502
rthumb -11.8036 -35.5637
lclavicle 6.36111e-014 -3.02153e-014
lhumerus -9.05752 -29.4769 84.7493
lradius 54.6499
lwrist 34.3496
lhand -14.0759 -16.2297
lfingers 7.12502
lthumb 12.0559 13.403
rfemur -70.6608 -14.1443 21.3122
rtibia 63.4835
rfoot -15.1266 -2.5797
rtoes 4.39937
lfemur -64.5311 -4.45709 -30.4254
ltibia 47.9004
lfoot -4.34549 -5.44116
ltoes -18.7497
143
root 22.3078 16.331 -4.91162 547.373 -110.991 -156.673
lowerback 74.6741 -4.12729 11.654
upperback 16.5076 0.672458 0.324555
thorax -1.47466 0.151939 -4.36263
lowerneck -7.74595 -5.42191 0.211798
upperneck -20.7976 -7.61813 3.28943
head -4.91438 -4.40828 1.17129
rclavicle 3.18055e-014 -6.83819e-014
rhumerus 57.6271 -16.6431 -48.6854
rradius 19.09
rwrist -6.70787
rhand -38.9305 -6.33509
rfingers 7.12502
rthumb -11.9366 -35.9748
lclavicle 3.18055e-014 -6.83819e-014
lhumerus -8.931 -29.5938 84.8762
lradius 54.5253
lwrist 34.3211
lhand -14.0281 -16.2649
lfingers 7.12502
lthumb 12.1021 13.3651
rfemur -70.4191 -14.1702 21.3899
rtibia 63.3556
rfoot -15.1464 -2.67512
rtoes 4.43957
lfemur -64.3465 -4.47164 -30.3167
ltibia 47.794
lfoot -4.31669 -5.52291
ltoes -18.9151
144
root 22.3012 16.3401 -4.91209 547.663 -111.127 -157.053
lowerback 74.6185 -3.91265 11.5475
upperback 16.5421 0.822727 0.44934
thorax -1.44393 0.195089 -4.23983
lowerneck -7.78147 -5.42171 0.301817
upperneck -20.7205 -7.63871 3.17641
head -4.89293 -4.41647 1.11891
rclavicle 7.31528e-014 2.06736e-014
rhumerus 57.2981 -16.5182 -48.4372
rradius 19.2657
rwrist -6.95868
rhand -39.0566 -6.75348
rfingers 7.12502
rthumb -12.0582 -36.3861
lclavicle 7.31528e-014 2.06736e-014
lhumerus -8.88284 -29.6538 85.0536
lradius 54.4274
lwrist 34.3146
lhand -13.9912 -16.3208
lfingers 7.12502
lthumb 12.1376 13.3071
rfemur -70.2151 -14.2266 21.4928
rtibia 63.2324
rfoot -15.151 -2.74078
rtoes 4.42851
lfemur -64.184 -4.52245 -30.1769
ltibia 47.6865
lfoot -4.2819 -5.57692
ltoes -18.8478
145
root 22.2939 16.3495 -4.91246 548.061 -111.275 -157.531
lowerback 74.5233 -3.72172 11.495
upperback 16.6023 0.973274 0.554835
thorax -1.3824 0.246447 -4.161
lowerneck -7.86141 -5.42248 0.433712
upperneck -20.6505 -7.66161 3.07204
head -4.86814 -4.43021 1.06129
rclavicle -4.45278e-014 -3.49861e-014
rhumerus 56.9019 -16.3581 -48.0803
rradius 19.4703
rwrist -7.33822
rhand -39.3015 -7.21327
rfingers 7.12502
rthumb -12.2944 -36.8319
lclavicle -4.45278e-014 -3.49861e-014
lhumerus -8.777 -29.7612 85.15
lradius 54.3553
lwrist 34.3608
lhand -13.9248 -16.3229
lfingers 7.12502
lthumb 12.2016 13.3012
rfemur -70.0112 -14.2742 21.6235
rtibia 63.1009
rfoot -15.1966 -2.80207
rtoes 4.6374
lfemur -64.0388 -4.54624 -30.0247
ltibia 47.5745
lfoot -4.25547 -5.6738
ltoes -18.807
146
root 22.2875 16.3586 -4.91383 548.389 -111.417 -157.965
lowerback 74.4198 -3.49948 11.425
upperback 16.6765 1.14306 0.689923
thorax -1.30702 0.301536 -4.0494
lowerneck -7.89584 -5.44798 0.521111
upperneck -20.6079 -7.71462 2.98799
head -4.8562 -4.45773 1.01994
rclavicle -8.5875e-014 4.13472e-014
rhumerus 56.4381 -16.1315 -47.5285
rradius 19.754
rwrist -7.85358
rhand -39.5104 -7.72407
rfingers 7.12502
rthumb -12.4958 -37.3305
lclavicle -8.5875e-014 4.13472e-014
lhumerus -8.69671 -29.8213 85.3253
lradius 54.2538
lwrist 34.272
lhand -13.8907 -16.3447
lfingers 7.12502
lthumb 12.2345 13.2774
rfemur -69.7896 -14.3172 21.7451
rtibia 62.9686
rfoot -15.2142 -2.88191
rtoes 4.67013
lfemur -63.8698 -4.59437 -29.8549
ltibia 47.4663
lfoot -4.21986 -5.73024
ltoes -18.781
147
root 22.2813 16.3695 -4.91506 548.724 -111.58 -158.4
lowerback 74.222 -3.28274 11.3742
upperback 16.8355 1.29564 0.841702
thorax -1.14265 0.354083 -3.92291
lowerneck -7.9929 -5.45917 0.599569
upperneck -20.6106 -7.75044 2.90425
head -4.84852 -4.4785 0.979077
rclavicle -7.31528e-014 -2.54444e-014
rhumerus 56.0503 -15.9512 -47.0103
rradius 20.0598
rwrist -8.33611
rhand -39.7555 -8.18272
rfingers 7.12502
rthumb -12.7321 -37.7746
lclavicle -7.31528e-014 -2.54444e-014
lhumerus -8.47967 -29.8949 85.4424
lradius 54.1498
lwrist 34.2573
lhand -13.8703 -16.364
lfingers 7.12502
lthumb 12.2542 13.257
rfemur -69.5674 -14.3902 21.8784
rtibia 62.8336
rfoot -15.2214 -2.95205
rtoes 4.67308
lfemur -63.7011 -4.61676 -29.7322
ltibia 47.3545
lfoot -4.17969 -5.82281
ltoes -18.7997
148
root 22.2749 16.3788 -4.91743 549.079 -111.759 -158.86
lowerback 73.9832 -3.04665 11.3029
upperback 17.0224 1.44896 1.02859
thorax -0.953413 0.401807 -3.75029
lowerneck -8.05785 -5.46546 0.653708
upperneck -20.6359 -7.78152 2.80477
head -4.85275 -4.4948 0.938959
rclavicle -3.18055e-014 -3.18055e-015
rhumerus 55.6377 -15.6572 -46.2993
rradius 20.4251
rwrist -8.92703
rhand -40.0296 -8.696
rfingers 7.12502
rthumb -12.9963 -38.2712
lclavicle -3.18055e-014 -3.18055e-015
lhumerus -8.23354 -29.9103 85.5816
lradius 54.0296
lwrist 34.1875
lhand -13.8422 -16.3482
lfingers 7.12502
lthumb 12.2813 13.2711
rfemur -69.343 -14.4531 22.0134
rtibia 62.6969
rfoot -15.2402 -3.04506
rtoes 4.71514
lfemur -63.5336 -4.66776 -29.5633
ltibia 47.2438
lfoot -4.13586 -5.89287
ltoes -18.7936
149
root 22.2688 16.3873 -4.91972 549.375 -111.925 -159.259
lowerback 73.7656 -2.79671 11.2176
upperback 17.184 1.61487 1.21249
thorax -0.793226 0.45315 -3.57988
lowerneck -8.06708 -5.47838 0.711773
upperneck -20.6948 -7.81626 2.73284
head -4.8752 -4.51493 0.909586
rclavicle -6.36111e-014 4.77083e-014
rhumerus 55.2473 -15.4171 -45.7569
rradius 20.7692
rwrist -9.34389
rhand -40.2021 -9.08614
rfingers 7.12502
rthumb -13.1626 -38.6507
lclavicle -6.36111e-014 4.77083e-014
lhumerus -8.04974 -29.9373 85.7443
lradius 53.9115
lwrist 34.1446
lhand -13.7987 -16.4163
lfingers 7.12502
lthumb 12.3232 13.2005
rfemur -69.1351 -14.5388 22.1496
rtibia 62.5722
rfoot -15.2439 -3.10125
rtoes 4.75435
lfemur -63.3715 -4.68552 -29.4445
ltibia 47.1323
lfoot -4.09781 -6.00501
ltoes -18.7591
150
root 22.2628 16.3968 -4.92232 549.646 -112.112 -159.662
lowerback 73.6374 -2.60659 11.1876
upperback 17.2729 1.77732 1.35495
thorax -0.702309 0.508096 -3.47271
lowerneck -8.01724 -5.50066 0.835732
upperneck -20.7342 -7.87075 2.61714
head -4.90537 -4.54561 0.857992
rclavicle -6.36111e-015 5.88403e-014
rhumerus 54.6911 -15.0434 -44.9981
rradius 21.1601
rwrist -9.96534
rhand -40.4629 -9.56739
rfingers 7.12502
rthumb -13.4139 -39.1155
lclavicle -6.36111e-015 5.88403e-014
lhumerus -7.93407 -30.0185 85.9132
lradius 53.7906
lwrist 34.0436
lhand -13.7782 -16.4339
lfingers 7.12502
lthumb 12.3429 13.1818
rfemur -68.8819 -14.6196 22.2642
rtibia 62.4443
rfoot -15.2707 -3.18734
rtoes 4.78865
lfemur -63.1627 -4.72875 -29.3061
ltibia 47.0158
lfoot -4.05034 -6.10931
ltoes -18.6557
